<?xml version="1.0" encoding="UTF-8" standalone="no"?>
<svg
   xmlns:dc="http://purl.org/dc/elements/1.1/"
   xmlns:cc="http://creativecommons.org/ns#"
   xmlns:rdf="http://www.w3.org/1999/02/22-rdf-syntax-ns#"
   xmlns:svg="http://www.w3.org/2000/svg"
   xmlns="http://www.w3.org/2000/svg"
   xmlns:sodipodi="http://sodipodi.sourceforge.net/DTD/sodipodi-0.dtd"
   xmlns:inkscape="http://www.inkscape.org/namespaces/inkscape"
   version="1.1"
   id="Ebene_1"
   x="0px"
   y="0px"
   width="100%"
   height="100%"
   viewBox="0 0 22.643999 22.940999"
   enable-background="new 0 0 82.602 22.941"
   xml:space="preserve"
   inkscape:version="0.48.4 r9939"
   sodipodi:docname="typo3-neos.svg"><metadata
     id="metadata19"><rdf:RDF><cc:Work
         rdf:about=""><dc:format>image/svg+xml</dc:format><dc:type
           rdf:resource="http://purl.org/dc/dcmitype/StillImage" /></cc:Work></rdf:RDF></metadata><defs
     id="defs17" /><sodipodi:namedview
     pagecolor="#ffffff"
     bordercolor="#666666"
     borderopacity="1"
     objecttolerance="10"
     gridtolerance="10"
     guidetolerance="10"
     inkscape:pageopacity="0"
     inkscape:pageshadow="2"
     inkscape:window-width="1879"
     inkscape:window-height="1060"
     id="namedview15"
     showgrid="false"
     fit-margin-top="0"
     fit-margin-left="0"
     fit-margin-right="0"
     fit-margin-bottom="0"
     inkscape:zoom="4.9393477"
     inkscape:cx="41.301"
     inkscape:cy="11.4705"
     inkscape:window-x="38"
     inkscape:window-y="-3"
     inkscape:window-maximized="1"
     inkscape:current-layer="Ebene_1" /><path
     d="m 17.133,15.81 c -0.341,0.1 -0.612,0.135 -0.967,0.135 -2.913,0 -7.191,-10.1800004 -7.191,-13.5670004 0,-1.248 0.296,-1.66399996 0.712,-2.02099996 -3.565,0.415 -7.844,1.72399996 -9.212,3.38799996 -0.297,0.416 -0.475,1.07 -0.475,1.901 C 0,10.936 5.646,22.941 9.628,22.941 c 1.843,0 4.95,-3.031 7.505,-7.131 l 0,0 z"
     id="path3"
     inkscape:connector-curvature="0"
     style="fill:#ff8700" /><path
     d="m 15.274,-3.5682259e-7 c 3.685,0 7.37,0.59399999682259 7.37,2.67399995682259 0,4.22 -2.674,9.3310004 -4.042,9.3310004 -2.437,0 -5.468,-6.7740004 -5.468,-10.1630004 C 13.135,0.29699964 13.729,-3.5682259e-7 15.274,-3.5682259e-7 z"
     id="path5"
     inkscape:connector-curvature="0"
     style="fill:#ff8700" /></svg>