<?xml version="1.0" encoding="UTF-8" standalone="no"?>
<!-- Generator: Adobe Illustrator 15.0.2, SVG Export Plug-In . SVG Version: 6.00 Build 0)  -->

<svg
   xmlns:dc="http://purl.org/dc/elements/1.1/"
   xmlns:cc="http://creativecommons.org/ns#"
   xmlns:rdf="http://www.w3.org/1999/02/22-rdf-syntax-ns#"
   xmlns:svg="http://www.w3.org/2000/svg"
   xmlns="http://www.w3.org/2000/svg"
   xmlns:sodipodi="http://sodipodi.sourceforge.net/DTD/sodipodi-0.dtd"
   xmlns:inkscape="http://www.inkscape.org/namespaces/inkscape"
   version="1.1"
   x="0px"
   y="0px"
   width="78.370003"
   height="78.370003"
   viewBox="0 0 78.370001 78.370003"
   enable-background="new 0 0 289.333 122.833"
   xml:space="preserve"
   id="svg2"
   inkscape:version="0.48.4 r9939"
   sodipodi:docname="symfony.svg"><metadata
     id="metadata40"><rdf:RDF><cc:Work
         rdf:about=""><dc:format>image/svg+xml</dc:format><dc:type
           rdf:resource="http://purl.org/dc/dcmitype/StillImage" /></cc:Work></rdf:RDF></metadata><defs
     id="defs38" /><sodipodi:namedview
     pagecolor="#ffffff"
     bordercolor="#666666"
     borderopacity="1"
     objecttolerance="10"
     gridtolerance="10"
     guidetolerance="10"
     inkscape:pageopacity="0"
     inkscape:pageshadow="2"
     inkscape:window-width="1879"
     inkscape:window-height="1060"
     id="namedview36"
     showgrid="false"
     fit-margin-top="0"
     fit-margin-left="0"
     fit-margin-right="0"
     fit-margin-bottom="0"
     inkscape:zoom="1.4101398"
     inkscape:cx="115.1305"
     inkscape:cy="36.9525"
     inkscape:window-x="38"
     inkscape:window-y="-3"
     inkscape:window-maximized="1"
     inkscape:current-layer="svg2" /><g
     id="fond"
     transform="translate(-29.536003,-19.998997)" /><g
     id="compacte"
     transform="translate(-29.536003,-19.998997)" /><g
     id="rectangle"
     transform="translate(-29.536003,-19.998997)" /><g
     id="g12"
     transform="translate(-29.536003,-19.998997)"><circle
       cx="68.721001"
       cy="59.183998"
       r="39.185001"
       id="circle14"
       sodipodi:cx="68.721001"
       sodipodi:cy="59.183998"
       sodipodi:rx="39.185001"
       sodipodi:ry="39.185001"
       d="m 107.906,59.183998 c 0,21.641279 -17.543721,39.185001 -39.184999,39.185001 -21.641279,0 -39.185002,-17.543722 -39.185002,-39.185001 0,-21.641279 17.543723,-39.185001 39.185002,-39.185001 21.641278,0 39.184999,17.543722 39.184999,39.185001 z" /><path
       d="m 85.853,34.499 c -3.981,0.136 -7.456,2.332 -10.042,5.365 -2.863,3.33 -4.769,7.275 -6.142,11.304 -2.455,-2.011 -4.349,-4.618 -8.289,-5.75 -3.045,-0.877 -6.244,-0.516 -9.185,1.676 -1.393,1.041 -2.354,2.612 -2.81,4.093 -1.181,3.842 1.242,7.263 2.344,8.491 l 2.409,2.579 c 0.496,0.506 1.692,1.826 1.108,3.719 -0.63,2.059 -3.112,3.389 -5.656,2.605 -1.137,-0.35 -2.768,-1.195 -2.403,-2.387 0.151,-0.486 0.5,-0.854 0.689,-1.271 0.169,-0.361 0.253,-0.635 0.305,-0.797 0.465,-1.514 -0.171,-3.488 -1.795,-3.991 -1.517,-0.464 -3.067,-0.095 -3.669,1.855 -0.683,2.22 0.38,6.245 6.065,7.997 6.661,2.047 12.295,-1.58 13.094,-6.311 0.505,-2.96 -0.835,-5.163 -3.283,-7.993 l -1.998,-2.209 c -1.209,-1.208 -1.625,-3.268 -0.373,-4.85 1.056,-1.337 2.559,-1.906 5.025,-1.236 3.597,0.976 5.2,3.472 7.874,5.485 -1.103,3.624 -1.825,7.259 -2.478,10.521 l -0.401,2.43 c -1.912,10.029 -3.372,15.539 -7.166,18.699 -0.764,0.545 -1.858,1.359 -3.505,1.416 -0.864,0.027 -1.142,-0.568 -1.153,-0.826 -0.02,-0.604 0.49,-0.883 0.829,-1.156 0.508,-0.277 1.275,-0.736 1.222,-2.203 -0.055,-1.736 -1.494,-3.242 -3.571,-3.174 -1.558,0.049 -3.931,1.516 -3.842,4.201 0.093,2.771 2.674,4.85 6.569,4.715 2.082,-0.07 6.73,-0.914 11.311,-6.363 5.332,-6.242 6.823,-13.398 7.943,-18.633 l 1.254,-6.918 c 0.693,0.085 1.438,0.143 2.247,0.161 6.642,0.141 9.962,-3.297 10.013,-5.8 0.032,-1.514 -0.994,-3.006 -2.433,-2.969 -1.027,0.028 -2.318,0.713 -2.629,2.135 -0.303,1.395 2.113,2.655 0.226,3.879 -1.341,0.868 -3.747,1.479 -7.133,0.983 l 0.615,-3.403 c 1.256,-6.456 2.807,-14.394 8.689,-14.589 0.429,-0.02 1.996,0.02 2.033,1.056 0.01,0.346 -0.077,0.438 -0.48,1.229 -0.415,0.618 -0.57,1.145 -0.552,1.749 0.058,1.647 1.311,2.731 3.125,2.667 2.426,-0.081 3.124,-2.441 3.083,-3.656 -0.1,-2.854 -3.107,-4.657 -7.084,-4.525 z"
       id="path16"
       inkscape:connector-curvature="0"
       style="fill:#ffffff" /></g></svg>