<?xml version="1.0" encoding="UTF-8" standalone="no"?>
<!-- Generator: Adobe Illustrator 17.1.0, SVG Export Plug-In . SVG Version: 6.00 Build 0)  -->

<svg
   xmlns:dc="http://purl.org/dc/elements/1.1/"
   xmlns:cc="http://creativecommons.org/ns#"
   xmlns:rdf="http://www.w3.org/1999/02/22-rdf-syntax-ns#"
   xmlns:svg="http://www.w3.org/2000/svg"
   xmlns="http://www.w3.org/2000/svg"
   xmlns:sodipodi="http://sodipodi.sourceforge.net/DTD/sodipodi-0.dtd"
   xmlns:inkscape="http://www.inkscape.org/namespaces/inkscape"
   version="1.1"
   id="Ebene_1"
   x="0px"
   y="0px"
   viewBox="0 0 287.36441 80.199998"
   enable-background="new 0 0 251.5 80.1"
   xml:space="preserve"
   inkscape:version="0.48.4 r9939"
   width="100%"
   height="100%"
   sodipodi:docname="tenside.svg"><metadata
     id="metadata3023"><rdf:RDF><cc:Work
         rdf:about=""><dc:format>image/svg+xml</dc:format><dc:type
           rdf:resource="http://purl.org/dc/dcmitype/StillImage" /></cc:Work></rdf:RDF></metadata><defs
     id="defs3021" /><sodipodi:namedview
     pagecolor="#ffffff"
     bordercolor="#666666"
     borderopacity="1"
     objecttolerance="10"
     gridtolerance="10"
     guidetolerance="10"
     inkscape:pageopacity="0"
     inkscape:pageshadow="2"
     inkscape:window-width="1879"
     inkscape:window-height="1060"
     id="namedview3019"
     showgrid="false"
     fit-margin-top="0"
     fit-margin-left="0"
     fit-margin-right="0"
     fit-margin-bottom="0"
     inkscape:zoom="1.7166998"
     inkscape:cx="157.04457"
     inkscape:cy="156.49649"
     inkscape:window-x="38"
     inkscape:window-y="-3"
     inkscape:window-maximized="1"
     inkscape:current-layer="Ebene_1" /><text
     font-size="60"
     id="text3005"
     style="font-size:60px;fill:#878787;font-family:Corbel"
     x="69.073395"
     y="56.736401">tenside</text>
<circle
     cx="34.200001"
     cy="39.200001"
     r="25.200001"
     id="circle3007"
     sodipodi:cx="34.200001"
     sodipodi:cy="39.200001"
     sodipodi:rx="25.200001"
     sodipodi:ry="25.200001"
     style="fill:#f0ebe2"
     transform="translate(0.0499976,0.05)" /><g
     id="g3009"
     transform="translate(0.0499976,0.05)"><path
       d="m 52,57 c 1,1 2.9,0.7 4.3,-0.7 C 57.7,54.9 58,53 57,52 l -16.6,-16.6 -5,5 L 52,57 z"
       id="path3011"
       inkscape:connector-curvature="0"
       style="fill:#c76758" /><path
       d="M 18.5,13.5 C 20,10 19.4,5.7 16.5,2.8 12.7,-1 6.6,-1 2.8,2.8 -1,6.6 -1,12.7 2.8,16.5 c 2.9,2.9 7.1,3.5 10.7,2 l 18,18 5,-5 -18,-18 z"
       id="path3013"
       inkscape:connector-curvature="0"
       style="fill:#c76758" /><path
       d="m 14.1,23.1 c -1,-1 -2.9,-0.7 -4.3,0.7 -1.4,1.4 -1.7,3.3 -0.7,4.3 l 15.4,15.4 5,-5 -15.4,-15.4 z"
       id="path3015"
       inkscape:connector-curvature="0"
       style="fill:#c76758" /><path
       d="m 63.2,63.6 c -2.9,-2.9 -7.1,-3.5 -10.7,-2 l -19.1,-19.2 -5,5 19.2,19.2 c -1.5,3.5 -0.9,7.8 2,10.7 3.8,3.8 9.9,3.8 13.7,0 C 67,73.5 67,67.4 63.2,63.6 z"
       id="path3017"
       inkscape:connector-curvature="0"
       style="fill:#c76758" /></g></svg>